HIERARCHY
ROOT Hips
{
  OFFSET 52.5501 96.2303 10.502
  CHANNELS 6 Xposition Yposition Zposition Zrotation Xrotation Yrotation
  JOINT spine
  {
    OFFSET 0 8.13249 0.467659
    CHANNELS 3 Zrotation Xrotation Yrotation
    JOINT spine1
    {
      OFFSET 0 10.3498 0
      CHANNELS 3 Zrotation Xrotation Yrotation
      JOINT spine2
      {
        OFFSET 0 9.91699 0
        CHANNELS 3 Zrotation Xrotation Yrotation
        JOINT Neck
        {
          OFFSET 0 25.461 1.2139
          CHANNELS 3 Zrotation Xrotation Yrotation
          JOINT Head
          {
            OFFSET 0 7.69245 0
            CHANNELS 3 Zrotation Xrotation Yrotation
            End Site
            {
              OFFSET 0 18.62 -6.14063
            }
          }
        }
        JOINT RightShoulder
        {
          OFFSET -4.17575 10.7096 -0.581445
          CHANNELS 3 Zrotation Xrotation Yrotation
          JOINT RightArm
          {
            OFFSET 0 14.0466 0
            CHANNELS 3 Zrotation Xrotation Yrotation
            JOINT RightArmRoll
            {
              OFFSET 0 7.09099 0
              CHANNELS 3 Zrotation Xrotation Yrotation
              JOINT RightForeArm
              {
                OFFSET 0 20.6535 0
                CHANNELS 3 Zrotation Xrotation Yrotation
                JOINT RightForeArmRoll
                {
                  OFFSET 0 7.95718 0
                  CHANNELS 3 Zrotation Xrotation Yrotation
                  JOINT RightHand
                  {
                    OFFSET 0 15.9683 0
                    CHANNELS 3 Zrotation Xrotation Yrotation
                    End Site
                    {
                      OFFSET 0 0 0
                    }
                  }
                }
              }
            }
          }
        }
        JOINT LeftShoulder
        {
          OFFSET 4.17575 10.7096 -0.581445
          CHANNELS 3 Zrotation Xrotation Yrotation
          JOINT LeftArm
          {
            OFFSET 0 14.0466 0
            CHANNELS 3 Zrotation Xrotation Yrotation
            JOINT LeftArmRoll
            {
              OFFSET 0 7.09098 0
              CHANNELS 3 Zrotation Xrotation Yrotation
              JOINT LeftForeArm
              {
                OFFSET 0 20.6535 0
                CHANNELS 3 Zrotation Xrotation Yrotation
                JOINT LeftForeArmRoll
                {
                  OFFSET 0 7.95718 0
                  CHANNELS 3 Zrotation Xrotation Yrotation
                  JOINT LeftHand
                  {
                    OFFSET 0 15.9683 0
                    CHANNELS 3 Zrotation Xrotation Yrotation
                    End Site
                    {
                      OFFSET 0 0 0
                    }
                  }
                }
              }
            }
          }
        }
      }
    }
  }
  JOINT RightUpLeg
  {
    OFFSET -7.20834 -1.32182 -1.10884
    CHANNELS 3 Zrotation Xrotation Yrotation
    JOINT RightUpLegRoll
    {
      OFFSET 0 18.7238 0
      CHANNELS 3 Zrotation Xrotation Yrotation
      JOINT RightLeg
      {
        OFFSET 0 -23.1866 0
        CHANNELS 3 Zrotation Xrotation Yrotation
        JOINT RightLegRoll
        {
          OFFSET 0 23.2624 0
          CHANNELS 3 Zrotation Xrotation Yrotation
          JOINT RightFoot
          {
            OFFSET 0 19.3621 0
            CHANNELS 3 Zrotation Xrotation Yrotation
            JOINT RightToeBase
            {
              OFFSET 0 16.1857 0
              CHANNELS 3 Zrotation Xrotation Yrotation
              End Site
              {
                OFFSET 0.00686052 7.83863 -0.903522
              }
            }
          }
        }
      }
    }
  }
  JOINT LeftUpLeg
  {
    OFFSET 7.20834 -1.32182 -1.10884
    CHANNELS 3 Zrotation Xrotation Yrotation
    JOINT LeftUpLegRoll
    {
      OFFSET 0 18.7239 0
      CHANNELS 3 Zrotation Xrotation Yrotation
      JOINT LeftLeg
      {
        OFFSET 0 23.1865 0
        CHANNELS 3 Zrotation Xrotation Yrotation
        JOINT LeftLegRoll
        {
          OFFSET 0 23.4775 0
          CHANNELS 3 Zrotation Xrotation Yrotation
          JOINT LeftFoot
          {
            OFFSET 0 19.147 0
            CHANNELS 3 Zrotation Xrotation Yrotation
            JOINT LeftToeBase
            {
              OFFSET 0 16.1857 0
              CHANNELS 3 Zrotation Xrotation Yrotation
              End Site
              {
                OFFSET -0.0307459 7.83863 -0.903522
              }
            }
          }
        }
      }
    }
  }
}
MOTION
Frames: 13
Frame Time: 0.00208333
52.4529 96.3224 10.6177 0.132518 -5.90785 0.850147 0.276461 -1.47902 0.112312 0.554875 1.04664 0.178259 0.553079 2.69166 0.169032 -4.88838 13.2286 -4.79949 -1.50353 -6.32215 -6.35119 61.3069 -9.01978 -5.64315 121.425 28.7206 -54.5803 7.49639e-007 4.59763e-008 -4.65487e-006 -165.027 67.9241 145.959 -7.41355e-006 8.86243e-008 -3 8.02922 -4.95146 0.697698 -61.1463 -4.93698 3.20823 -129.549 38.9696 41.0287 -1.62623e-005 -1.69356e-006 3.53502e-006 146.56 82.9467 -138.525 -2.68509e-005 1.92794e-006 3.00163 -8.02916 -4.95142 -0.69766 172.281 -2.3689 4.93303 -180 7.01546e-015 178.92 177.495 9.674 179.836 -7.80079e-007 -1.62304e-006 0.0476378 -17.9541 68.7276 20.1257 8.13654 25.2334 -3.4867 -173.874 -3.48927 -1.41661 4.5067e-006 -1.99009e-005 -1.07797 -0.912488 -10.0066 0.392818 -6.42456e-007 1.24004e-006 -0.15353 19.4231 70.6164 -21.8738 -8.13664 25.2349 3.4848 
52.4492 96.3057 10.6106 0.132008 -5.92009 0.847643 0.276403 -1.47828 0.112299 0.555384 1.04885 0.178742 0.553575 2.69388 0.169495 -4.88224 13.2501 -4.80338 -1.52213 -6.3364 -6.35729 61.3034 -9.01815 -5.64215 121.444 28.726 -55.0609 7.49639e-007 4.59763e-008 -4.65487e-006 -164.789 68.0841 145.731 -7.41355e-006 8.86243e-008 -3 8.02922 -4.95146 0.697698 -61.1438 -4.91758 3.1966 -129.648 38.9796 41.3596 -1.62623e-005 -1.69356e-006 3.53502e-006 145.996 82.9744 -137.943 -2.68509e-005 1.92794e-006 3.00163 -8.02916 -4.95142 -0.69766 172.278 -2.39223 4.94083 -180 7.01546e-015 178.919 177.487 9.65554 179.838 -7.80078e-007 -1.62304e-006 0.0476669 -17.9561 68.7189 20.1184 8.13654 25.2334 -3.4867 -173.875 -3.51139 -1.41774 4.5067e-006 -1.99009e-005 -1.07856 -0.912492 -9.99231 0.392371 -6.42456e-007 1.24004e-006 -0.153554 19.4243 70.6122 -21.868 -8.13664 25.2349 3.4848 
52.4496 96.3263 10.6191 0.131614 -5.93296 0.844984 0.276349 -1.47739 0.112294 0.556062 1.05143 0.179427 0.554236 2.69645 0.170157 -4.8719 13.2721 -4.80722 -1.54812 -6.35167 -6.36339 61.2992 -9.01696 -5.6414 121.463 28.732 -55.5419 7.49639e-007 4.59763e-008 -4.65487e-006 -164.55 68.2433 145.503 -7.41355e-006 8.86243e-008 -3 8.02922 -4.95146 0.697698 -61.1414 -4.89729 3.18444 -129.746 38.9915 41.6882 -1.62623e-005 -1.69356e-006 3.53502e-006 145.428 83.0028 -137.359 -2.68509e-005 1.92794e-006 3.00163 -8.02916 -4.95142 -0.69766 172.275 -2.41537 4.94808 -180 7.01546e-015 178.918 177.479 9.63876 179.839 -7.80079e-007 -1.62304e-006 0.0476958 -17.958 68.7111 20.1119 8.13654 25.2334 -3.4867 -173.876 -3.5337 -1.41894 4.5067e-006 -1.99009e-005 -1.07911 -0.912544 -9.97926 0.391964 -6.42456e-007 1.24004e-006 -0.153604 19.4258 70.6088 -21.8627 -8.13664 25.2349 3.4848 
52.453 96.3274 10.619 0.131324 -5.94626 0.842147 0.276288 -1.4764 0.112294 0.556849 1.05424 0.180267 0.555004 2.69927 0.17097 -4.85793 13.2945 -4.81105 -1.58032 -6.3678 -6.36951 61.2947 -9.01608 -5.64083 121.48 28.7389 -56.0224 7.49639e-007 4.59763e-008 -4.65487e-006 -164.308 68.4032 145.275 -7.41355e-006 8.86243e-008 -3 8.02922 -4.95146 0.697698 -61.139 -4.87641 3.17195 -129.845 39.0054 42.0144 -1.62623e-005 -1.69356e-006 3.53502e-006 144.857 83.0322 -136.772 -2.68509e-005 1.92794e-006 3.00162 -8.02916 -4.95142 -0.69766 172.272 -2.43808 4.95481 -180 7.01546e-015 178.917 177.472 9.62362 179.84 -7.80079e-007 -1.62304e-006 0.0477248 -17.9597 68.7042 20.1061 8.13654 25.2334 -3.4867 -173.878 -3.55597 -1.42017 4.5067e-006 -1.99009e-005 -1.07962 -0.912634 -9.9674 0.391596 -6.42456e-007 1.24004e-006 -0.153675 19.4276 70.606 -21.8581 -8.13664 25.2349 3.4848 
52.4527 96.3274 10.6178 0.131128 -5.95979 0.839112 0.276209 -1.47538 0.112295 0.557686 1.05716 0.181211 0.55582 2.70218 0.171886 -4.84088 13.3174 -4.81491 -1.61753 -6.38463 -6.37563 61.2899 -9.01535 -5.64036 121.498 28.7471 -56.5018 7.49639e-007 4.59763e-008 -4.65487e-006 -164.063 68.5651 145.048 -7.41355e-006 8.86243e-008 -3 8.02922 -4.95146 0.697698 -61.1366 -4.8553 3.15932 -129.944 39.0213 42.3381 -1.62623e-005 -1.69356e-006 3.53502e-006 144.28 83.0629 -136.181 -2.68509e-005 1.92794e-006 3.00162 -8.02916 -4.95142 -0.69766 172.269 -2.46015 4.96106 -180 7.01545e-015 178.917 177.466 9.61009 179.841 -7.80079e-007 -1.62304e-006 0.0477537 -17.9612 68.6981 20.101 8.13654 25.2334 -3.4867 -173.879 -3.57798 -1.42139 4.5067e-006 -1.99009e-005 -1.08009 -0.912749 -9.95669 0.391262 -6.42456e-007 1.24004e-006 -0.153765 19.4296 70.6039 -21.8539 -8.13664 25.2349 3.4848 
52.4528 96.3349 10.6212 0.131014 -5.97333 0.835857 0.2761 -1.47437 0.112294 0.558513 1.06006 0.182211 0.556626 2.70508 0.172857 -4.8213 13.3408 -4.81884 -1.65858 -6.40201 -6.38177 61.2851 -9.01463 -5.63989 121.516 28.7568 -56.9795 7.49639e-007 4.59763e-008 -4.65487e-006 -163.816 68.7306 144.824 -7.41355e-006 8.86243e-008 -3 8.02922 -4.95146 0.697698 -61.1342 -4.83428 3.14674 -130.043 39.0394 42.6589 -1.62623e-005 -1.69356e-006 3.53502e-006 143.697 83.0951 -135.586 -2.68509e-005 1.92794e-006 3.00162 -8.02916 -4.95142 -0.69766 172.266 -2.48136 4.96688 -180 7.01545e-015 178.916 177.46 9.59815 179.842 -7.80078e-007 -1.62304e-006 0.0477825 -17.9627 68.6928 20.0964 8.13654 25.2334 -3.4867 -173.881 -3.59951 -1.42259 4.5067e-006 -1.99009e-005 -1.08052 -0.912878 -9.94709 0.390959 -6.42455e-007 1.24004e-006 -0.153869 19.4318 70.6024 -21.8503 -8.13664 25.2349 3.4848 
52.4533 96.3285 10.6342 0.130971 -5.9867 0.832362 0.27595 -1.47342 0.112287 0.559273 1.06281 0.183218 0.557364 2.70783 0.173837 -4.79975 13.3648 -4.82288 -1.70228 -6.41979 -6.38792 61.2803 -9.01379 -5.63935 121.535 28.7686 -57.4548 7.49639e-007 4.59763e-008 -4.65487e-006 -163.565 68.9011 144.604 -7.41355e-006 8.86243e-008 -3 8.02922 -4.95146 0.697698 -61.1316 -4.81369 3.13441 -130.142 39.0597 42.9769 -1.62623e-005 -1.69356e-006 3.53502e-006 143.107 83.1289 -134.985 -2.68509e-005 1.92794e-006 3.00161 -8.02916 -4.95142 -0.69766 172.263 -2.50147 4.9723 -180 7.01545e-015 178.915 177.456 9.58776 179.843 -7.80079e-007 -1.62304e-006 0.0478114 -17.964 68.6882 20.0925 8.13654 25.2334 -3.4867 -173.883 -3.62032 -1.42373 4.5067e-006 -1.99009e-005 -1.08092 -0.913011 -9.93857 0.390683 -6.42456e-007 1.24004e-006 -0.153983 19.4342 70.6013 -21.8473 -8.13664 25.2349 3.4848 
52.4534 96.3359 10.6343 0.130988 -5.99968 0.828606 0.275748 -1.47259 0.11227 0.559906 1.06527 0.184182 0.557975 2.7103 0.174778 -4.77679 13.3893 -4.82706 -1.74745 -6.4378 -6.39409 61.2757 -9.01267 -5.63864 121.555 28.7828 -57.9271 7.49639e-007 4.59764e-008 -4.65487e-006 -163.311 69.0782 144.388 -7.41355e-006 8.86243e-008 -3 8.02922 -4.95146 0.697698 -61.129 -4.79385 3.12253 -130.241 39.0823 43.2918 -1.62623e-005 -1.69356e-006 3.53502e-006 142.508 83.1646 -134.377 -2.68509e-005 1.92794e-006 3.00161 -8.02916 -4.95142 -0.69766 172.26 -2.52028 4.97737 -180 7.01545e-015 178.915 177.451 9.5789 179.844 -7.80079e-007 -1.62304e-006 0.0478401 -17.9653 68.6842 20.0891 8.13654 25.2334 -3.4867 -173.884 -3.64018 -1.42477 4.5067e-006 -1.99009e-005 -1.08129 -0.913135 -9.93111 0.390433 -6.42456e-007 1.24004e-006 -0.154104 19.4368 70.6008 -21.8448 -8.13664 25.2349 3.4848 
52.4528 96.3296 10.6359 0.131055 -6.01206 0.824568 0.275482 -1.47194 0.11224 0.560352 1.06734 0.185056 0.558402 2.71236 0.175632 -4.75297 13.4145 -4.83142 -1.79289 -6.45589 -6.40027 61.2715 -9.01114 -5.6377 121.577 28.7999 -58.3957 7.49639e-007 4.59763e-008 -4.65487e-006 -163.054 69.2633 144.179 -7.41355e-006 8.86243e-008 -3 8.02922 -4.95146 0.697698 -61.1261 -4.77511 3.11127 -130.34 39.1073 43.6034 -1.62623e-005 -1.69356e-006 3.53502e-006 141.899 83.2024 -133.761 -2.68509e-005 1.92794e-006 3.0016 -8.02916 -4.95142 -0.69766 172.258 -2.53756 4.98212 -180 7.01545e-015 178.914 177.447 9.57151 179.845 -7.80079e-007 -1.62304e-006 0.0478688 -17.9665 68.6808 20.0862 8.13654 25.2334 -3.4867 -173.886 -3.65887 -1.4257 4.5067e-006 -1.99009e-005 -1.08163 -0.91324 -9.92466 0.390203 -6.42456e-007 1.24004e-006 -0.154228 19.4394 70.6007 -21.843 -8.13664 25.2349 3.4848 
52.4525 96.3346 10.6402 0.131159 -6.02366 0.820226 0.275142 -1.47151 0.112194 0.560553 1.06886 0.185791 0.558587 2.71389 0.176351 -4.72884 13.4403 -4.83601 -1.83744 -6.47391 -6.40647 61.2677 -9.00906 -5.63642 121.602 28.8203 -58.8601 7.49639e-007 4.59764e-008 -4.65487e-006 -162.792 69.4578 143.976 -7.41355e-006 8.86243e-008 -3 8.02922 -4.95146 0.697698 -61.1231 -4.75778 3.10084 -130.439 39.1348 43.9117 -1.62623e-005 -1.69356e-006 3.53502e-006 141.278 83.2424 -133.135 -2.68509e-005 1.92794e-006 3.0016 -8.02916 -4.95142 -0.69766 172.255 -2.55308 4.9866 -180 7.01545e-015 178.914 177.444 9.56559 179.845 -7.80079e-007 -1.62304e-006 0.0478975 -17.9677 68.678 20.0837 8.13654 25.2334 -3.4867 -173.888 -3.67615 -1.42647 4.5067e-006 -1.99009e-005 -1.08195 -0.913315 -9.91921 0.389992 -6.42456e-007 1.24004e-006 -0.15435 19.4422 70.6009 -21.8416 -8.13664 25.2349 3.4848 
52.4543 96.3293 10.6409 0.131292 -6.03426 0.81556 0.274716 -1.47135 0.112128 0.56045 1.06973 0.186336 0.55847 2.71475 0.176889 -4.70496 13.4667 -4.84086 -1.87989 -6.49169 -6.41269 61.2646 -9.00627 -5.63474 121.628 28.8445 -59.3197 7.49639e-007 4.59763e-008 -4.65487e-006 -162.525 69.6634 143.781 -7.41355e-006 8.86243e-008 -3 8.02922 -4.95146 0.697698 -61.1197 -4.74221 3.09143 -130.537 39.1648 44.2164 -1.62623e-005 -1.69356e-006 3.53502e-006 140.643 83.285 -132.498 -2.68509e-005 1.92794e-006 3.0016 -8.02916 -4.95142 -0.69766 172.252 -2.56663 4.99084 -180 7.01545e-015 178.913 177.44 9.56111 179.846 -7.80079e-007 -1.62304e-006 0.0479262 -17.9688 68.6756 20.0817 8.13654 25.2334 -3.4867 -173.889 -3.69181 -1.42707 4.5067e-006 -1.99009e-005 -1.08226 -0.913348 -9.91471 0.389795 -6.42455e-007 1.24004e-006 -0.154468 19.445 70.6015 -21.8409 -8.13664 25.2349 3.4848 
52.4537 96.3322 10.6449 0.131441 -6.04366 0.810549 0.274192 -1.47153 0.112038 0.559983 1.0698 0.186643 0.557994 2.71482 0.177197 -4.6819 13.4939 -4.84601 -1.91907 -6.5091 -6.41894 61.2624 -9.00265 -5.63255 121.658 28.8731 -59.774 7.49639e-007 4.59763e-008 -4.65487e-006 -162.254 69.8815 143.595 -7.41355e-006 8.86243e-008 -3 8.02922 -4.95146 0.697698 -61.1161 -4.72873 3.08323 -130.636 39.1975 44.5173 -1.62623e-005 -1.69356e-006 3.53502e-006 139.994 83.3302 -131.849 -2.68509e-005 1.92794e-006 3.00159 -8.02916 -4.95142 -0.69766 172.25 -2.57799 4.99489 -180 7.01545e-015 178.913 177.437 9.55803 179.847 -7.80079e-007 -1.62304e-006 0.0479548 -17.97 68.6737 20.08 8.13654 25.2334 -3.4867 -173.891 -3.7056 -1.42745 4.5067e-006 -1.99009e-005 -1.08255 -0.913327 -9.91113 0.389609 -6.42456e-007 1.24004e-006 -0.154577 19.4479 70.6022 -21.8407 -8.13664 25.2349 3.4848 
52.4508 96.3318 10.6446 0.131597 -6.05165 0.805172 0.273561 -1.47209 0.111921 0.559094 1.06895 0.186664 0.5571 2.71397 0.177228 -4.66019 13.5218 -4.8515 -1.95379 -6.52596 -6.4252 61.261 -8.99804 -5.62979 121.692 28.9065 -60.2225 7.49639e-007 4.59764e-008 -4.65487e-006 -161.977 70.1137 143.419 -7.41355e-006 8.86243e-008 -3 8.02922 -4.95146 0.697698 -61.1121 -4.71768 3.07644 -130.734 39.2331 44.8144 -1.62623e-005 -1.69356e-006 3.53502e-006 139.327 83.3782 -131.185 -2.68509e-005 1.92794e-006 3.00159 -8.02916 -4.95142 -0.69766 172.247 -2.58692 4.99879 -180 7.01545e-015 178.913 177.434 9.5563 179.847 -7.80078e-007 -1.62304e-006 0.0479833 -17.9712 68.6721 20.0787 8.13654 25.2334 -3.4867 -173.893 -3.71731 -1.4276 4.5067e-006 -1.99009e-005 -1.08283 -0.913242 -9.90844 0.389431 -6.42456e-007 1.24004e-006 -0.154674 19.4507 70.6032 -21.8412 -8.13664 25.2349 3.4848 
